<mxfile host="app.diagrams.net" modified="2020-07-01T02:07:21.141Z" agent="5.0 (Macintosh; Intel Mac OS X 10_14_5) AppleWebKit/537.36 (KHTML, like Gecko) Chrome/83.0.4103.116 Safari/537.36" etag="M-JaL_GwnVJSZgqq0-ZE" version="13.3.5" type="github">
  <diagram id="0zwMCrvhABQFQP54AS-D" name="第 1 页">
    <mxGraphModel dx="912" dy="1760" grid="1" gridSize="10" guides="1" tooltips="1" connect="1" arrows="1" fold="1" page="1" pageScale="1" pageWidth="827" pageHeight="1169" math="0" shadow="0">
      <root>
        <mxCell id="0" />
        <mxCell id="1" parent="0" />
        <mxCell id="IH7vMhBB5bouLMUmL0kH-1" value="" style="rounded=0;whiteSpace=wrap;html=1;dashed=1;strokeColor=#FFCCE6;" vertex="1" parent="1">
          <mxGeometry x="1360" y="-980" width="250" height="570" as="geometry" />
        </mxCell>
        <mxCell id="IH7vMhBB5bouLMUmL0kH-2" value="" style="rounded=0;whiteSpace=wrap;html=1;dashed=1;strokeColor=#FFCCE6;" vertex="1" parent="1">
          <mxGeometry x="60" y="-650" width="1217" height="220" as="geometry" />
        </mxCell>
        <mxCell id="IH7vMhBB5bouLMUmL0kH-3" value="" style="rounded=0;whiteSpace=wrap;html=1;dashed=1;strokeColor=#FFCCE6;" vertex="1" parent="1">
          <mxGeometry x="60" y="-980" width="1217" height="280" as="geometry" />
        </mxCell>
        <mxCell id="IH7vMhBB5bouLMUmL0kH-4" value="&lt;font style=&quot;font-size: 18px&quot;&gt;fliggyright(权益平台)&lt;br&gt;&lt;/font&gt;&lt;br&gt;&lt;div style=&quot;text-align: left&quot;&gt;&lt;span&gt;1.权益管理，支持父子权益组合&lt;/span&gt;&lt;/div&gt;&lt;div style=&quot;text-align: left&quot;&gt;&lt;span&gt;2.权益素材管理&lt;/span&gt;&lt;/div&gt;&lt;div style=&quot;text-align: left&quot;&gt;&lt;span&gt;3.权益投放规则管理&lt;/span&gt;&lt;/div&gt;&lt;div style=&quot;text-align: left&quot;&gt;&lt;span&gt;4.权益关联二方/三方优惠、资产系统，对接发放、核销接口&lt;/span&gt;&lt;/div&gt;&lt;div style=&quot;text-align: left&quot;&gt;&lt;span&gt;5.维护用户权益资产关联关系&lt;/span&gt;&lt;/div&gt;&lt;div style=&quot;text-align: left&quot;&gt;&lt;span&gt;6.保障组合权益发放事务&lt;/span&gt;&lt;/div&gt;&lt;div style=&quot;text-align: left&quot;&gt;7.维护组合权益总库存、使用规则&lt;/div&gt;" style="rounded=0;whiteSpace=wrap;html=1;fillColor=#7EA6E0;strokeColor=none;" vertex="1" parent="1">
          <mxGeometry x="747" y="-889" width="370" height="159" as="geometry" />
        </mxCell>
        <mxCell id="IH7vMhBB5bouLMUmL0kH-5" value="&lt;font style=&quot;font-size: 14px&quot;&gt;飞猪权益中心&lt;/font&gt;" style="rounded=0;whiteSpace=wrap;html=1;fillColor=#FFCCCC;strokeColor=none;" vertex="1" parent="1">
          <mxGeometry x="90" y="-990" width="90" height="30" as="geometry" />
        </mxCell>
        <mxCell id="IH7vMhBB5bouLMUmL0kH-6" value="&lt;font style=&quot;font-size: 18px&quot;&gt;tripbp(发奖平台)&lt;br&gt;&lt;/font&gt;&lt;br&gt;&lt;div style=&quot;text-align: left&quot;&gt;&lt;span&gt;1.配置发放权益规则&lt;/span&gt;&lt;/div&gt;&lt;div style=&quot;text-align: left&quot;&gt;&lt;span&gt;2.权益发放任务、接口&lt;/span&gt;&lt;/div&gt;" style="rounded=0;whiteSpace=wrap;html=1;fillColor=#CCE5FF;strokeColor=none;" vertex="1" parent="1">
          <mxGeometry x="197" y="-800" width="280" height="70" as="geometry" />
        </mxCell>
        <mxCell id="IH7vMhBB5bouLMUmL0kH-7" value="&lt;font style=&quot;font-size: 18px&quot;&gt;ump(优惠中台)&lt;br&gt;&lt;/font&gt;&lt;br&gt;&lt;div style=&quot;text-align: left&quot;&gt;&lt;span&gt;1.计算优惠&lt;/span&gt;&lt;/div&gt;&lt;div style=&quot;text-align: left&quot;&gt;&lt;span&gt;2.使用优惠券&lt;/span&gt;&lt;/div&gt;" style="rounded=0;whiteSpace=wrap;html=1;fillColor=#E6D0DE;strokeColor=none;" vertex="1" parent="1">
          <mxGeometry x="970" y="-570" width="260" height="110" as="geometry" />
        </mxCell>
        <mxCell id="IH7vMhBB5bouLMUmL0kH-8" value="&lt;font style=&quot;font-size: 18px&quot;&gt;promotion-center(权益中台)&lt;br&gt;&lt;/font&gt;&lt;br&gt;&lt;div style=&quot;text-align: left&quot;&gt;&lt;span&gt;1.发放优惠券、&lt;/span&gt;&lt;span&gt;发放部分权益（龙腾）&lt;/span&gt;&lt;/div&gt;&lt;div style=&quot;text-align: left&quot;&gt;&lt;span&gt;2.维护用户优惠券、权益资产关联&lt;/span&gt;&lt;/div&gt;" style="rounded=0;whiteSpace=wrap;html=1;fillColor=#CDA2BE;strokeColor=none;" vertex="1" parent="1">
          <mxGeometry x="577" y="-570" width="260" height="110" as="geometry" />
        </mxCell>
        <mxCell id="IH7vMhBB5bouLMUmL0kH-9" value="&lt;font style=&quot;font-size: 18px&quot;&gt;二方权益系统&lt;br&gt;&lt;/font&gt;&lt;br&gt;1.星巴克、支付宝汇率等权益发放" style="rounded=0;whiteSpace=wrap;html=1;fillColor=#67AB9F;strokeColor=none;" vertex="1" parent="1">
          <mxGeometry x="1386" y="-889" width="190" height="95" as="geometry" />
        </mxCell>
        <mxCell id="IH7vMhBB5bouLMUmL0kH-10" value="&lt;font style=&quot;font-size: 14px&quot;&gt;权益中台&lt;/font&gt;" style="rounded=0;whiteSpace=wrap;html=1;fillColor=#FFCCCC;strokeColor=none;" vertex="1" parent="1">
          <mxGeometry x="97" y="-660" width="90" height="30" as="geometry" />
        </mxCell>
        <mxCell id="IH7vMhBB5bouLMUmL0kH-11" value="&lt;font style=&quot;font-size: 14px&quot;&gt;外部权益系统&lt;/font&gt;" style="rounded=0;whiteSpace=wrap;html=1;fillColor=#FFCCCC;strokeColor=none;" vertex="1" parent="1">
          <mxGeometry x="1380" y="-1000" width="100" height="30" as="geometry" />
        </mxCell>
        <mxCell id="IH7vMhBB5bouLMUmL0kH-12" value="" style="rounded=0;whiteSpace=wrap;html=1;dashed=1;strokeColor=#FFCCE6;" vertex="1" parent="1">
          <mxGeometry x="60" y="-1130" width="1550" height="110" as="geometry" />
        </mxCell>
        <mxCell id="IH7vMhBB5bouLMUmL0kH-13" value="&lt;font style=&quot;font-size: 14px&quot;&gt;应用场景&lt;/font&gt;" style="rounded=0;whiteSpace=wrap;html=1;fillColor=#FFCCCC;strokeColor=none;" vertex="1" parent="1">
          <mxGeometry x="97" y="-1140" width="90" height="30" as="geometry" />
        </mxCell>
        <mxCell id="IH7vMhBB5bouLMUmL0kH-14" value="&lt;font style=&quot;font-size: 18px&quot;&gt;三方权益系统&lt;br&gt;&lt;/font&gt;&lt;br&gt;1.商家权益发放等" style="rounded=0;whiteSpace=wrap;html=1;fillColor=#D5E8D4;strokeColor=none;" vertex="1" parent="1">
          <mxGeometry x="1386" y="-745" width="190" height="95" as="geometry" />
        </mxCell>
        <mxCell id="IH7vMhBB5bouLMUmL0kH-15" value="&lt;font style=&quot;font-size: 18px&quot;&gt;fp(资金中台)&lt;br&gt;&lt;/font&gt;&lt;br&gt;&lt;div style=&quot;text-align: left&quot;&gt;&lt;span&gt;1.发放里程、天猫积分&lt;/span&gt;&lt;/div&gt;&lt;div style=&quot;text-align: left&quot;&gt;&lt;span&gt;2.保存用户里程、积分资产&lt;/span&gt;&lt;/div&gt;" style="rounded=0;whiteSpace=wrap;html=1;fillColor=#FFCCE6;strokeColor=none;" vertex="1" parent="1">
          <mxGeometry x="197" y="-570" width="230" height="110" as="geometry" />
        </mxCell>
        <mxCell id="IH7vMhBB5bouLMUmL0kH-16" value="&lt;font style=&quot;font-size: 14px&quot;&gt;导购权益展示&lt;/font&gt;" style="rounded=0;whiteSpace=wrap;html=1;fillColor=#99CCFF;strokeColor=none;" vertex="1" parent="1">
          <mxGeometry x="197" y="-1100" width="280" height="50" as="geometry" />
        </mxCell>
        <mxCell id="IH7vMhBB5bouLMUmL0kH-17" value="&lt;font style=&quot;font-size: 14px&quot;&gt;导购权益领取 / 行为触发权益发放&lt;/font&gt;" style="rounded=0;whiteSpace=wrap;html=1;fillColor=#FFB570;strokeColor=none;" vertex="1" parent="1">
          <mxGeometry x="587" y="-1100" width="280" height="50" as="geometry" />
        </mxCell>
        <mxCell id="IH7vMhBB5bouLMUmL0kH-18" value="&lt;font style=&quot;font-size: 14px&quot;&gt;交易/履约 权益使用&lt;/font&gt;" style="rounded=0;whiteSpace=wrap;html=1;fillColor=#9AC7BF;strokeColor=none;" vertex="1" parent="1">
          <mxGeometry x="987" y="-1100" width="280" height="50" as="geometry" />
        </mxCell>
        <mxCell id="IH7vMhBB5bouLMUmL0kH-19" value="" style="endArrow=classic;html=1;exitX=0.5;exitY=1;exitDx=0;exitDy=0;entryX=0.5;entryY=0;entryDx=0;entryDy=0;strokeColor=#007FFF;fillColor=#66B2FF;" edge="1" parent="1" source="IH7vMhBB5bouLMUmL0kH-16" target="IH7vMhBB5bouLMUmL0kH-46">
          <mxGeometry width="50" height="50" relative="1" as="geometry">
            <mxPoint x="857" y="-830" as="sourcePoint" />
            <mxPoint x="907" y="-880" as="targetPoint" />
          </mxGeometry>
        </mxCell>
        <mxCell id="IH7vMhBB5bouLMUmL0kH-20" value="1.1 权益查询" style="edgeLabel;html=1;align=center;verticalAlign=middle;resizable=0;points=[];" connectable="0" vertex="1" parent="IH7vMhBB5bouLMUmL0kH-19">
          <mxGeometry x="0.1526" relative="1" as="geometry">
            <mxPoint y="27" as="offset" />
          </mxGeometry>
        </mxCell>
        <mxCell id="IH7vMhBB5bouLMUmL0kH-21" value="" style="endArrow=classic;html=1;strokeColor=#007FFF;fillColor=#66B2FF;exitX=0.5;exitY=1;exitDx=0;exitDy=0;" edge="1" parent="1" source="IH7vMhBB5bouLMUmL0kH-46" target="IH7vMhBB5bouLMUmL0kH-6">
          <mxGeometry width="50" height="50" relative="1" as="geometry">
            <mxPoint x="540" y="-849" as="sourcePoint" />
            <mxPoint x="517" y="-870" as="targetPoint" />
          </mxGeometry>
        </mxCell>
        <mxCell id="IH7vMhBB5bouLMUmL0kH-22" value="1.2 发放规则预判" style="edgeLabel;html=1;align=center;verticalAlign=middle;resizable=0;points=[];" connectable="0" vertex="1" parent="IH7vMhBB5bouLMUmL0kH-21">
          <mxGeometry x="0.1259" y="4" relative="1" as="geometry">
            <mxPoint x="-10.99" y="-4.75" as="offset" />
          </mxGeometry>
        </mxCell>
        <mxCell id="IH7vMhBB5bouLMUmL0kH-23" value="" style="endArrow=classic;html=1;strokeColor=#FFB570;fillColor=#66B2FF;exitX=0.5;exitY=1;exitDx=0;exitDy=0;entryX=0.75;entryY=0;entryDx=0;entryDy=0;" edge="1" parent="1" source="IH7vMhBB5bouLMUmL0kH-17" target="IH7vMhBB5bouLMUmL0kH-6">
          <mxGeometry width="50" height="50" relative="1" as="geometry">
            <mxPoint x="867" y="-730" as="sourcePoint" />
            <mxPoint x="917" y="-780" as="targetPoint" />
          </mxGeometry>
        </mxCell>
        <mxCell id="IH7vMhBB5bouLMUmL0kH-24" value="2.1 权益发放" style="edgeLabel;html=1;align=center;verticalAlign=middle;resizable=0;points=[];" connectable="0" vertex="1" parent="IH7vMhBB5bouLMUmL0kH-23">
          <mxGeometry x="0.3475" y="4" relative="1" as="geometry">
            <mxPoint x="86.45999999999998" y="-81.84" as="offset" />
          </mxGeometry>
        </mxCell>
        <mxCell id="IH7vMhBB5bouLMUmL0kH-25" value="" style="endArrow=classic;html=1;strokeColor=#FFB570;fillColor=#66B2FF;exitX=1;exitY=0.75;exitDx=0;exitDy=0;entryX=-0.003;entryY=0.874;entryDx=0;entryDy=0;entryPerimeter=0;" edge="1" parent="1" source="IH7vMhBB5bouLMUmL0kH-6" target="IH7vMhBB5bouLMUmL0kH-4">
          <mxGeometry width="50" height="50" relative="1" as="geometry">
            <mxPoint x="777" y="-776" as="sourcePoint" />
            <mxPoint x="750" y="-770" as="targetPoint" />
          </mxGeometry>
        </mxCell>
        <mxCell id="IH7vMhBB5bouLMUmL0kH-26" value="2.2 实际权益发放" style="edgeLabel;html=1;align=center;verticalAlign=middle;resizable=0;points=[];" connectable="0" vertex="1" parent="IH7vMhBB5bouLMUmL0kH-25">
          <mxGeometry x="0.3475" y="4" relative="1" as="geometry">
            <mxPoint x="-34.07" y="3.75" as="offset" />
          </mxGeometry>
        </mxCell>
        <mxCell id="IH7vMhBB5bouLMUmL0kH-27" value="" style="endArrow=classic;html=1;strokeColor=#FFB570;fillColor=#66B2FF;entryX=0.906;entryY=-0.014;entryDx=0;entryDy=0;entryPerimeter=0;" edge="1" parent="1" target="IH7vMhBB5bouLMUmL0kH-8">
          <mxGeometry width="50" height="50" relative="1" as="geometry">
            <mxPoint x="813" y="-729" as="sourcePoint" />
            <mxPoint x="1197" y="-758" as="targetPoint" />
          </mxGeometry>
        </mxCell>
        <mxCell id="IH7vMhBB5bouLMUmL0kH-28" value="2.3 最终权益发放" style="edgeLabel;html=1;align=center;verticalAlign=middle;resizable=0;points=[];" connectable="0" vertex="1" parent="IH7vMhBB5bouLMUmL0kH-27">
          <mxGeometry x="0.3475" y="4" relative="1" as="geometry">
            <mxPoint x="-7.65" y="10.51" as="offset" />
          </mxGeometry>
        </mxCell>
        <mxCell id="IH7vMhBB5bouLMUmL0kH-29" value="" style="endArrow=classic;html=1;strokeColor=#FFB570;fillColor=#66B2FF;entryX=0.5;entryY=0;entryDx=0;entryDy=0;exitX=0.142;exitY=0.999;exitDx=0;exitDy=0;exitPerimeter=0;" edge="1" parent="1" source="IH7vMhBB5bouLMUmL0kH-4" target="IH7vMhBB5bouLMUmL0kH-15">
          <mxGeometry width="50" height="50" relative="1" as="geometry">
            <mxPoint x="930" y="-760" as="sourcePoint" />
            <mxPoint x="717" y="-560" as="targetPoint" />
          </mxGeometry>
        </mxCell>
        <mxCell id="IH7vMhBB5bouLMUmL0kH-30" value="2.3 最终权益发放" style="edgeLabel;html=1;align=center;verticalAlign=middle;resizable=0;points=[];" connectable="0" vertex="1" parent="IH7vMhBB5bouLMUmL0kH-29">
          <mxGeometry x="0.3475" y="4" relative="1" as="geometry">
            <mxPoint x="-27.76" as="offset" />
          </mxGeometry>
        </mxCell>
        <mxCell id="IH7vMhBB5bouLMUmL0kH-31" value="" style="endArrow=classic;html=1;strokeColor=#FFB570;fillColor=#66B2FF;" edge="1" parent="1">
          <mxGeometry width="50" height="50" relative="1" as="geometry">
            <mxPoint x="1117" y="-842.21" as="sourcePoint" />
            <mxPoint x="1357" y="-842" as="targetPoint" />
          </mxGeometry>
        </mxCell>
        <mxCell id="IH7vMhBB5bouLMUmL0kH-32" value="2.3 最终权益发放" style="edgeLabel;html=1;align=center;verticalAlign=middle;resizable=0;points=[];" connectable="0" vertex="1" parent="IH7vMhBB5bouLMUmL0kH-31">
          <mxGeometry x="0.3475" y="4" relative="1" as="geometry">
            <mxPoint x="-2" y="4.57" as="offset" />
          </mxGeometry>
        </mxCell>
        <mxCell id="IH7vMhBB5bouLMUmL0kH-33" value="" style="endArrow=classic;html=1;strokeColor=#FFB570;fillColor=#66B2FF;exitX=0.5;exitY=1;exitDx=0;exitDy=0;entryX=0;entryY=1;entryDx=0;entryDy=0;" edge="1" parent="1" target="IH7vMhBB5bouLMUmL0kH-18">
          <mxGeometry width="50" height="50" relative="1" as="geometry">
            <mxPoint x="987" y="-1050" as="sourcePoint" />
            <mxPoint x="527" y="-929" as="targetPoint" />
          </mxGeometry>
        </mxCell>
        <mxCell id="IH7vMhBB5bouLMUmL0kH-34" value="" style="endArrow=classic;html=1;strokeColor=#67AB9F;fillColor=#66B2FF;exitX=0.75;exitY=1;exitDx=0;exitDy=0;" edge="1" parent="1" source="IH7vMhBB5bouLMUmL0kH-18">
          <mxGeometry width="50" height="50" relative="1" as="geometry">
            <mxPoint x="1160" y="-1000" as="sourcePoint" />
            <mxPoint x="1197" y="-570" as="targetPoint" />
          </mxGeometry>
        </mxCell>
        <mxCell id="IH7vMhBB5bouLMUmL0kH-35" value="3.1 优惠使用" style="edgeLabel;html=1;align=center;verticalAlign=middle;resizable=0;points=[];" connectable="0" vertex="1" parent="IH7vMhBB5bouLMUmL0kH-34">
          <mxGeometry x="-0.5396" y="2" relative="1" as="geometry">
            <mxPoint y="18" as="offset" />
          </mxGeometry>
        </mxCell>
        <mxCell id="IH7vMhBB5bouLMUmL0kH-36" value="" style="endArrow=classic;html=1;strokeColor=#67AB9F;fillColor=#66B2FF;entryX=0.946;entryY=1.017;entryDx=0;entryDy=0;entryPerimeter=0;" edge="1" parent="1" target="IH7vMhBB5bouLMUmL0kH-4">
          <mxGeometry width="50" height="50" relative="1" as="geometry">
            <mxPoint x="1097" y="-570" as="sourcePoint" />
            <mxPoint x="1203.8899999999999" y="-560.1100000000001" as="targetPoint" />
          </mxGeometry>
        </mxCell>
        <mxCell id="IH7vMhBB5bouLMUmL0kH-37" value="3.2 校验组合权益使用规则" style="edgeLabel;html=1;align=center;verticalAlign=middle;resizable=0;points=[];" connectable="0" vertex="1" parent="IH7vMhBB5bouLMUmL0kH-36">
          <mxGeometry x="-0.5396" y="2" relative="1" as="geometry">
            <mxPoint x="19.49" y="-3.6799999999999997" as="offset" />
          </mxGeometry>
        </mxCell>
        <mxCell id="IH7vMhBB5bouLMUmL0kH-38" value="" style="endArrow=classic;html=1;strokeColor=#67AB9F;fillColor=#66B2FF;entryX=0.838;entryY=0;entryDx=0;entryDy=0;exitX=0.25;exitY=1;exitDx=0;exitDy=0;entryPerimeter=0;" edge="1" parent="1" source="IH7vMhBB5bouLMUmL0kH-18" target="IH7vMhBB5bouLMUmL0kH-4">
          <mxGeometry width="50" height="50" relative="1" as="geometry">
            <mxPoint x="1103.11" y="-1010.0000000000001" as="sourcePoint" />
            <mxPoint x="1099.9999999999998" y="-570.1100000000001" as="targetPoint" />
          </mxGeometry>
        </mxCell>
        <mxCell id="IH7vMhBB5bouLMUmL0kH-39" value="3.3 权益核销" style="edgeLabel;html=1;align=center;verticalAlign=middle;resizable=0;points=[];" connectable="0" vertex="1" parent="IH7vMhBB5bouLMUmL0kH-38">
          <mxGeometry x="-0.5396" y="2" relative="1" as="geometry">
            <mxPoint x="-19.01" y="91" as="offset" />
          </mxGeometry>
        </mxCell>
        <mxCell id="IH7vMhBB5bouLMUmL0kH-40" value="" style="endArrow=classic;html=1;strokeColor=#67AB9F;fillColor=#66B2FF;entryX=0.109;entryY=-0.001;entryDx=0;entryDy=0;exitX=0.75;exitY=1;exitDx=0;exitDy=0;entryPerimeter=0;" edge="1" parent="1" target="IH7vMhBB5bouLMUmL0kH-7">
          <mxGeometry width="50" height="50" relative="1" as="geometry">
            <mxPoint x="999.9999999999995" y="-730" as="sourcePoint" />
            <mxPoint x="921.39" y="-609" as="targetPoint" />
          </mxGeometry>
        </mxCell>
        <mxCell id="IH7vMhBB5bouLMUmL0kH-41" value="3.4 最终权益核销" style="edgeLabel;html=1;align=center;verticalAlign=middle;resizable=0;points=[];" connectable="0" vertex="1" parent="IH7vMhBB5bouLMUmL0kH-40">
          <mxGeometry x="-0.5396" y="2" relative="1" as="geometry">
            <mxPoint x="-32" y="82.86" as="offset" />
          </mxGeometry>
        </mxCell>
        <mxCell id="IH7vMhBB5bouLMUmL0kH-42" value="" style="endArrow=classic;html=1;strokeColor=#67AB9F;fillColor=#66B2FF;exitX=0.75;exitY=1;exitDx=0;exitDy=0;" edge="1" parent="1">
          <mxGeometry width="50" height="50" relative="1" as="geometry">
            <mxPoint x="1116.9999999999995" y="-770" as="sourcePoint" />
            <mxPoint x="1360" y="-769" as="targetPoint" />
          </mxGeometry>
        </mxCell>
        <mxCell id="IH7vMhBB5bouLMUmL0kH-43" value="3.4最终权益核销" style="edgeLabel;html=1;align=center;verticalAlign=middle;resizable=0;points=[];" connectable="0" vertex="1" parent="IH7vMhBB5bouLMUmL0kH-42">
          <mxGeometry x="0.2795" y="1" relative="1" as="geometry">
            <mxPoint x="5" y="5.36" as="offset" />
          </mxGeometry>
        </mxCell>
        <mxCell id="IH7vMhBB5bouLMUmL0kH-44" value="" style="endArrow=classic;html=1;strokeColor=#67AB9F;fillColor=#66B2FF;entryX=1;entryY=0;entryDx=0;entryDy=0;exitX=0.75;exitY=1;exitDx=0;exitDy=0;" edge="1" parent="1" target="IH7vMhBB5bouLMUmL0kH-15">
          <mxGeometry width="50" height="50" relative="1" as="geometry">
            <mxPoint x="949.9999999999995" y="-730" as="sourcePoint" />
            <mxPoint x="950" y="-570" as="targetPoint" />
          </mxGeometry>
        </mxCell>
        <mxCell id="IH7vMhBB5bouLMUmL0kH-45" value="3.4 最终权益核销" style="edgeLabel;html=1;align=center;verticalAlign=middle;resizable=0;points=[];" connectable="0" vertex="1" parent="IH7vMhBB5bouLMUmL0kH-44">
          <mxGeometry x="0.4945" y="2" relative="1" as="geometry">
            <mxPoint as="offset" />
          </mxGeometry>
        </mxCell>
        <mxCell id="IH7vMhBB5bouLMUmL0kH-46" value="&lt;font style=&quot;font-size: 18px&quot;&gt;ffatouch(权益触达)&lt;br&gt;&lt;/font&gt;&lt;br&gt;&lt;div style=&quot;text-align: left&quot;&gt;1.统一权益透出接口&lt;/div&gt;" style="rounded=0;whiteSpace=wrap;html=1;fillColor=#CCE5FF;strokeColor=none;" vertex="1" parent="1">
          <mxGeometry x="197" y="-940" width="280" height="70" as="geometry" />
        </mxCell>
        <mxCell id="IH7vMhBB5bouLMUmL0kH-47" value="" style="endArrow=classic;html=1;strokeColor=#007FFF;fillColor=#66B2FF;entryX=0;entryY=0.25;entryDx=0;entryDy=0;exitX=1;exitY=0.5;exitDx=0;exitDy=0;" edge="1" parent="1" source="IH7vMhBB5bouLMUmL0kH-46">
          <mxGeometry width="50" height="50" relative="1" as="geometry">
            <mxPoint x="477" y="-930" as="sourcePoint" />
            <mxPoint x="747" y="-834.25" as="targetPoint" />
          </mxGeometry>
        </mxCell>
        <mxCell id="IH7vMhBB5bouLMUmL0kH-48" value="1.3 权益查询" style="edgeLabel;html=1;align=center;verticalAlign=middle;resizable=0;points=[];" connectable="0" vertex="1" parent="IH7vMhBB5bouLMUmL0kH-47">
          <mxGeometry x="0.1259" y="4" relative="1" as="geometry">
            <mxPoint y="-0.040000000000000036" as="offset" />
          </mxGeometry>
        </mxCell>
      </root>
    </mxGraphModel>
  </diagram>
</mxfile>
